<svg width="1440" height="938" viewBox="0 0 1440 938" fill="none" xmlns="http://www.w3.org/2000/svg">
<g clip-path="url(#clip0)">
<rect width="1440" height="2458" transform="translate(0 -70)" fill="white"/>
<rect y="706" width="1440" height="616" fill="white"/>
<path fill-rule="evenodd" clip-rule="evenodd" d="M1441 0V708L1150.03 869.877C1105.97 894.384 1054.29 901.353 1005.32 889.388L1 644L1 0H1441Z" fill="url(#paint0_linear)"/>
<g filter="url(#filter0_d)">
<path fill-rule="evenodd" clip-rule="evenodd" d="M705.936 274.476C717.498 234.146 694.193 192.072 653.872 180.48L-2.58463 -8.25401L-2.59329 681.474L471.309 817.22C511.65 828.775 553.718 805.447 565.282 765.108L705.936 274.476Z" fill="#4250BF"/>
</g>
<g filter="url(#filter1_d)">
<path fill-rule="evenodd" clip-rule="evenodd" d="M-5.99999 -70V274.664L1007.46 544.206C1047.67 554.899 1089 531.279 1100.19 491.211L1257 -70L-5.99999 -70Z" fill="#3947B6"/>
</g>
</g>
<defs>
<filter id="filter0_d" x="-132.594" y="-134.254" width="971.492" height="1088.43" filterUnits="userSpaceOnUse" color-interpolation-filters="sRGB">
<feFlood flood-opacity="0" result="BackgroundImageFix"/>
<feColorMatrix in="SourceAlpha" type="matrix" values="0 0 0 0 0 0 0 0 0 0 0 0 0 0 0 0 0 0 127 0"/>
<feOffset dy="4"/>
<feGaussianBlur stdDeviation="65"/>
<feColorMatrix type="matrix" values="0 0 0 0 0.14902 0 0 0 0 0.2 0 0 0 0 0.588235 0 0 0 1 0"/>
<feBlend mode="normal" in2="BackgroundImageFix" result="effect1_dropShadow"/>
<feBlend mode="normal" in="SourceGraphic" in2="effect1_dropShadow" result="shape"/>
</filter>
<filter id="filter1_d" x="-112" y="-165" width="1475" height="828.777" filterUnits="userSpaceOnUse" color-interpolation-filters="sRGB">
<feFlood flood-opacity="0" result="BackgroundImageFix"/>
<feColorMatrix in="SourceAlpha" type="matrix" values="0 0 0 0 0 0 0 0 0 0 0 0 0 0 0 0 0 0 127 0"/>
<feOffset dy="11"/>
<feGaussianBlur stdDeviation="53"/>
<feColorMatrix type="matrix" values="0 0 0 0 0.164706 0 0 0 0 0.219608 0 0 0 0 0.615686 0 0 0 1 0"/>
<feBlend mode="normal" in2="BackgroundImageFix" result="effect1_dropShadow"/>
<feBlend mode="normal" in="SourceGraphic" in2="effect1_dropShadow" result="shape"/>
</filter>
<linearGradient id="paint0_linear" x1="600.916" y1="566.82" x2="1457.24" y2="463.708" gradientUnits="userSpaceOnUse">
<stop stop-color="#3847B5"/>
<stop offset="1" stop-color="#253194"/>
</linearGradient>
<clipPath id="clip0">
<rect width="1440" height="2458" fill="white" transform="translate(0 -70)"/>
</clipPath>
</defs>
</svg>
